# File created by Blade
# Date/Time:  Tue Sep 23 19:18:47 2014
# Frame Rate: 120.000 fps
#------------------------------------------------------
:FULLY-SPECIFIED
:DEGREES
1332
root 0.524503 34.820397 -0.346328 129.894689 -2.242795 -39.899742
Spine -77.031033 -0.676201 28.917951
Head -14.784000 24.692448 38.231739
LeftShoulder -22.023554 30.304847 39.662109
LeftArm 120.694466 -69.908789 -129.991380
LeftForeArm 0.738981 -0.000000 103.030036
LeftHand -63.114793 -0.000000 2.796418
LeftHandThumb1 -26.253704 0.000000 33.147579
RightShoulder -38.505694 -40.511541 -4.838046
RightArm 25.989692 53.221601 64.960955
RightForeArm 83.749609 -0.000000 -4.970855
RightHand 8.558409 -0.000000 17.306227
RightHandThumb1 -24.326973 -0.000000 -32.862282
LeftUpLeg -128.782508 33.419740 -22.027716
LeftLeg -6.247839 -0.000000 0.000000
LeftFoot 1.842177 -1.535858 -0.605473
LeftToeBase 5.810717 -0.000000 -0.000000
RightUpLeg 7.164086 -1.252600 -29.737018
RightLeg 57.704903 -0.000000 -0.000000
RightFoot 33.064450 7.306404 3.066184
RightToeBase 35.196813 -0.000000 -0.000000
1333
root 0.554319 34.825316 -0.356300 130.057485 -2.368012 -39.937330
Spine -77.099833 -0.583192 28.861629
Head -14.685104 24.883500 38.132244
LeftShoulder -21.946204 30.227167 39.753851
LeftArm 120.015146 -69.959865 -129.386759
LeftForeArm 1.048760 -0.000000 102.925540
LeftHand -63.146736 -0.000000 2.917902
LeftHandThumb1 -26.253704 0.000000 33.147579
RightShoulder -38.511226 -40.645915 -4.733655
RightArm 26.377343 53.025430 65.058360
RightForeArm 83.897378 0.000000 -5.130745
RightHand 8.573450 -0.000000 17.410860
RightHandThumb1 -24.326973 -0.000000 -32.862282
LeftUpLeg -128.900888 33.364582 -22.098038
LeftLeg -6.184517 -0.000000 0.000000
LeftFoot 1.818743 -1.474722 -0.666949
LeftToeBase 5.841732 -0.000000 -0.000000
RightUpLeg 6.978694 -1.130959 -29.947909
RightLeg 57.739768 -0.000000 -0.000000
RightFoot 33.047763 7.322508 2.973935
RightToeBase 35.247482 -0.000000 -0.000000
1334
root 0.579143 34.828581 -0.368404 130.111734 -2.490207 -39.983790
Spine -77.078602 -0.547553 28.800509
Head -14.570087 25.061768 38.077191
LeftShoulder -21.928674 30.234951 39.773347
LeftArm 119.508281 -69.943995 -128.892904
LeftForeArm 1.352740 -0.000000 102.821510
LeftHand -63.162718 -0.000000 3.015915
LeftHandThumb1 -26.253704 0.000000 33.147579
RightShoulder -38.435564 -40.742017 -4.705450
RightArm 26.570467 52.628997 64.922784
RightForeArm 84.235089 -0.000000 -5.421714
RightHand 8.527085 -0.000000 17.569658
RightHandThumb1 -24.326973 -0.000000 -32.862282
LeftUpLeg -128.897479 33.386934 -22.093754
LeftLeg -6.112399 -0.000000 0.000000
LeftFoot 1.737249 -1.419538 -0.822386
LeftToeBase 5.980906 -0.000000 -0.000000
RightUpLeg 6.893428 -0.906771 -30.151837
RightLeg 57.764496 -0.000000 -0.000000
RightFoot 33.077602 7.407296 2.894763
RightToeBase 35.179821 -0.000000 -0.000000
1335
root 0.599390 34.830622 -0.380820 130.103012 -2.591045 -40.034198
Spine -77.002949 -0.521490 28.694295
Head -14.498600 25.176702 38.024181
LeftShoulder -21.908880 30.278560 39.782100
LeftArm 119.225117 -69.876308 -128.617455
LeftForeArm 1.300046 -0.000000 102.731456
LeftHand -63.129308 -0.000000 3.136091
LeftHandThumb1 -26.253704 0.000000 33.147579
RightShoulder -38.442918 -40.903943 -4.600566
RightArm 26.870949 52.401772 64.961231
RightForeArm 84.338354 -0.000000 -5.604317
RightHand 8.499757 -0.000000 17.598646
RightHandThumb1 -24.326973 -0.000000 -32.862282
LeftUpLeg -128.828443 33.456252 -22.038698
LeftLeg -6.047257 -0.000000 0.000000
LeftFoot 1.654908 -1.324230 -0.956370
LeftToeBase 6.117808 -0.000000 -0.000000
RightUpLeg 6.888265 -0.638514 -30.321646
RightLeg 57.749946 -0.000000 -0.000000
RightFoot 33.076868 7.391957 2.956733
RightToeBase 35.325070 -0.000000 -0.000000
1336
root 0.623756 34.832078 -0.395294 130.126607 -2.704524 -40.028104
Spine -76.962297 -0.505403 28.579606
Head -14.477765 25.219289 37.940508
LeftShoulder -21.867017 30.299721 39.803305
LeftArm 118.786588 -69.829967 -128.166790
LeftForeArm 1.865691 -0.000000 102.616673
LeftHand -63.268146 0.000000 3.092787
LeftHandThumb1 -26.253704 0.000000 33.147579
RightShoulder -38.476264 -41.009743 -4.562539
RightArm 27.085822 52.016259 64.896289
RightForeArm 84.588224 0.000000 -5.876566
RightHand 8.520450 -0.000000 17.572311
RightHandThumb1 -24.326973 -0.000000 -32.862282
LeftUpLeg -128.774668 33.463897 -21.932800
LeftLeg -5.951674 -0.000000 0.000000
LeftFoot 1.545815 -1.162120 -1.090110
LeftToeBase 6.276502 -0.000000 -0.000000
RightUpLeg 6.872132 -0.462750 -30.493036
RightLeg 57.732103 -0.000000 -0.000000
RightFoot 33.119153 7.504129 2.812596
RightToeBase 35.316040 -0.000000 -0.000000
1337
root 0.638122 34.832440 -0.409456 130.100013 -2.807406 -40.070031
Spine -76.885008 -0.491480 28.437932
Head -14.441428 25.236110 37.865260
LeftShoulder -21.764028 30.293729 39.834753
LeftArm 118.539870 -69.911584 -127.890083
LeftForeArm 2.020497 -0.000000 102.507263
LeftHand -63.297260 -0.000000 3.226917
LeftHandThumb1 -26.253704 0.000000 33.147579
RightShoulder -38.538727 -41.139195 -4.503180
RightArm 27.395919 51.843441 64.995757
RightForeArm 84.563069 -0.000000 -6.055795
RightHand 8.478386 -0.000000 17.536420
RightHandThumb1 -24.326973 -0.000000 -32.862282
LeftUpLeg -128.668248 33.573101 -21.810568
LeftLeg -5.849616 -0.000000 0.000000
LeftFoot 1.415839 -0.990501 -1.171283
LeftToeBase 6.353893 -0.000000 -0.000000
RightUpLeg 6.889445 -0.191228 -30.652544
RightLeg 57.701266 -0.000000 -0.000000
RightFoot 33.188617 7.669335 2.740825
RightToeBase 35.260961 -0.000000 -0.000000
1338
root 0.647866 34.830418 -0.423401 130.036987 -2.893573 -40.115203
Spine -76.779512 -0.483649 28.296180
Head -14.424469 25.252416 37.784815
LeftShoulder -21.661668 30.293958 39.874191
LeftArm 118.163108 -70.009421 -127.486331
LeftForeArm 2.485952 -0.000000 102.408039
LeftHand -63.396262 0.000000 3.353835
LeftHandThumb1 -26.253704 0.000000 33.147579
RightShoulder -38.599664 -41.231139 -4.469965
RightArm 27.600043 51.439172 64.894606
RightForeArm 84.810536 0.000000 -6.429318
RightHand 8.418641 -0.000000 17.672357
RightHandThumb1 -24.326973 -0.000000 -32.862282
LeftUpLeg -128.516923 33.735811 -21.634482
LeftLeg -5.742738 -0.000000 0.000000
LeftFoot 1.251252 -0.811257 -1.286999
LeftToeBase 6.502595 -0.000000 -0.000000
RightUpLeg 6.938850 0.091004 -30.780718
RightLeg 57.690342 -0.000000 -0.000000
RightFoot 33.063809 7.617182 2.647878
RightToeBase 35.328646 -0.000000 -0.000000
